<svg xmlns="http://www.w3.org/2000/svg" width="94.36" height="91.632" viewBox="0 0 94.36 91.632">
  <path id="Icon_awesome-drum" data-name="Icon awesome-drum" d="M57.067,15.059,69.823,7.406a3.987,3.987,0,0,0-4.1-6.837L45.7,12.58a78.4,78.4,0,0,0-9.822-.62C16.063,11.959,0,19.1,0,27.906V47.942c0,3.795,2.994,7.275,7.973,10.012V45.948a3.987,3.987,0,0,1,7.973,0V61.2a68.263,68.263,0,0,0,15.946,2.585V49.936a3.987,3.987,0,0,1,7.973,0V63.784A68.263,68.263,0,0,0,55.811,61.2V45.95a3.987,3.987,0,0,1,7.973,0V57.955c4.979-2.737,7.973-6.218,7.973-10.012V27.907c0-5.28-5.8-9.946-14.69-12.848ZM35.879,37.872c-16.513,0-29.9-4.462-29.9-9.966s13.386-9.966,29.9-9.966c.292,0,.576.012.865.015L25.854,24.487a3.987,3.987,0,1,0,4.1,6.837l20.27-12.161c9.265,1.693,15.55,4.973,15.55,8.744C65.778,33.411,52.39,37.872,35.879,37.872Z" transform="translate(32.851) rotate(31)" fill="#ff888f"/>
</svg>
