<svg xmlns="http://www.w3.org/2000/svg" width="43.722" height="44.833" viewBox="0 0 43.722 44.833">
  <path id="Icon_awesome-github" data-name="Icon awesome-github" d="M14.624,36.662c0,.185-.2.334-.458.334-.291.028-.494-.121-.494-.334,0-.185.2-.334.458-.334C14.395,36.3,14.624,36.449,14.624,36.662Zm-2.741-.417c-.062.185.115.4.379.454a.4.4,0,0,0,.547-.185c.053-.185-.115-.4-.379-.482A.443.443,0,0,0,11.883,36.245Zm3.9-.158c-.256.065-.432.241-.405.454.026.185.256.306.52.241s.432-.241.405-.426S16.035,36.059,15.779,36.087ZM21.579.563C9.353.563,0,10.324,0,23.183,0,33.464,6.153,42.261,14.941,45.358a1.135,1.135,0,0,0,1.525-1.122c0-.575-.026-3.745-.026-5.692,0,0-6.171,1.391-7.466-2.763,0,0-1-2.7-2.451-3.393,0,0-2.019-1.455.141-1.428a4.619,4.619,0,0,1,3.4,2.392C12,36.931,15.232,35.9,16.493,35.29a5.258,5.258,0,0,1,1.41-3.124C12.976,31.591,8,30.84,8,21.922a7.215,7.215,0,0,1,2.08-5.46,9.181,9.181,0,0,1,.229-6.295c1.842-.6,6.082,2.5,6.082,2.5a19.839,19.839,0,0,1,11.072,0s4.24-3.115,6.082-2.5a9.177,9.177,0,0,1,.229,6.295,7.378,7.378,0,0,1,2.274,5.46c0,8.946-5.192,9.66-10.12,10.244a5.636,5.636,0,0,1,1.5,4.3c0,3.124-.026,6.99-.026,7.75a1.138,1.138,0,0,0,1.525,1.122c8.815-3.078,14.792-11.876,14.792-22.157C43.722,10.324,33.806.563,21.579.563ZM8.568,32.536c-.115.093-.088.306.062.482.141.148.344.213.458.093.115-.093.088-.306-.062-.482C8.886,32.481,8.683,32.416,8.568,32.536Zm-.952-.751c-.062.121.026.269.2.362a.255.255,0,0,0,.379-.065c.062-.121-.026-.269-.2-.362C7.819,31.665,7.678,31.693,7.616,31.786Zm2.856,3.3c-.141.121-.088.4.115.575.2.213.458.241.573.093.115-.121.062-.4-.115-.575C10.851,34.965,10.587,34.938,10.472,35.086Zm-1-1.363c-.141.093-.141.334,0,.547s.379.306.494.213a.439.439,0,0,0,0-.575C9.838,33.7,9.608,33.6,9.467,33.723Z" transform="translate(0 -0.563)"/>
</svg>
