<svg xmlns="http://www.w3.org/2000/svg" width="39.749" height="44.833" viewBox="0 0 39.749 44.833">
  <path id="Icon_awesome-node-js" data-name="Icon awesome-node-js" d="M19.915,45.118a3.485,3.485,0,0,1-1.726-.463L12.7,41.408c-.818-.463-.418-.623-.151-.712a10.813,10.813,0,0,0,2.482-1.13.4.4,0,0,1,.409.036l4.217,2.5a.515.515,0,0,0,.507,0L36.6,32.618a.527.527,0,0,0,.249-.445V13.207a.53.53,0,0,0-.258-.454L20.164,3.278a.515.515,0,0,0-.507,0L3.243,12.762a.519.519,0,0,0-.258.454V32.174a.491.491,0,0,0,.258.436l4.5,2.6c2.446,1.219,3.941-.214,3.941-1.664V14.826a.471.471,0,0,1,.48-.472h2.082a.476.476,0,0,1,.48.472V33.552c0,3.256-1.779,5.124-4.866,5.124a6.986,6.986,0,0,1-3.781-1.032L1.775,35.163a3.459,3.459,0,0,1-1.726-3V13.207a3.47,3.47,0,0,1,1.726-3L18.189.725a3.6,3.6,0,0,1,3.452,0l16.431,9.492a3.459,3.459,0,0,1,1.726,3V32.174a3.481,3.481,0,0,1-1.726,3L21.641,44.655a3.46,3.46,0,0,1-1.726.463ZM33.179,26.427c0-3.55-2.4-4.493-7.446-5.16-5.106-.676-5.622-1.023-5.622-2.215,0-.987.436-2.3,4.217-2.3,3.372,0,4.617.729,5.133,3.007a.476.476,0,0,0,.463.374h2.135a.464.464,0,0,0,.347-.151.5.5,0,0,0,.125-.365c-.329-3.923-2.936-5.747-8.2-5.747-4.688,0-7.482,1.975-7.482,5.293,0,3.594,2.785,4.59,7.277,5.035,5.382.525,5.8,1.317,5.8,2.375,0,1.833-1.477,2.616-4.937,2.616-4.35,0-5.3-1.094-5.622-3.256a.471.471,0,0,0-.472-.4H16.765a.469.469,0,0,0-.472.472c0,2.767,1.5,6.067,8.7,6.067,5.2-.009,8.185-2.064,8.185-5.64Z" transform="translate(-0.049 -0.285)"/>
</svg>
