<svg xmlns="http://www.w3.org/2000/svg" width="59.772" height="44.833" viewBox="0 0 59.772 44.833">
  <path id="Icon_awesome-sass" data-name="Icon awesome-sass" d="M28.19,35.019C28.162,35.076,28.134,35.12,28.19,35.019Zm23.267-8.125a12.25,12.25,0,0,0-5.417,1.261,11.5,11.5,0,0,1-1.214-2.811,7.5,7.5,0,0,1-.1-2.363,19.9,19.9,0,0,1,.71-2.54c-.009-.1-.131-.616-1.336-.626s-2.241.233-2.362.551a11.472,11.472,0,0,0-.495,1.784c-.215,1.093-2.409,5-3.651,7.033a7.252,7.252,0,0,1-.831-2.055,7.5,7.5,0,0,1-.1-2.363,19.9,19.9,0,0,1,.71-2.54c-.009-.1-.131-.616-1.335-.626s-2.241.233-2.363.551-.252,1.065-.495,1.784-3.165,7.219-3.93,8.91c-.392.859-.728,1.55-.971,2.017-.037.075-.065.121-.084.159.028-.047.047-.093.047-.075-.205.4-.327.626-.327.626v.009c-.159.3-.336.57-.42.57a3.874,3.874,0,0,1,.028-1.859c.439-2.26,1.476-5.772,1.466-5.893-.009-.065.2-.672-.682-1a1.1,1.1,0,0,0-1.233.205c-.075,0-.131.187-.131.187s.943-3.96-1.811-3.96c-1.718,0-4.109,1.887-5.284,3.6-.738.4-2.335,1.27-4.016,2.195l-1.933,1.065c-.047-.047-.084-.093-.131-.14-3.343-3.568-9.514-6.089-9.253-10.88.093-1.746.7-6.332,11.868-11.9,9.153-4.558,16.47-3.306,17.73-.523C35.918,11.213,30.194,18.6,20.69,19.666c-3.623.4-5.527-1-6-1.522-.495-.551-.57-.579-.756-.476-.308.168-.112.654,0,.943a5.628,5.628,0,0,0,3.436,2.7c1.746.57,5.994.887,11.13-1.1,5.77-2.223,10.261-8.415,8.944-13.6-1.341-5.267-10.075-7-18.334-4.063A41.543,41.543,0,0,0,5.035,10.616C.487,14.874-.24,18.582.059,20.132c1.064,5.5,8.645,9.087,11.68,11.74-.149.084-.29.159-.42.233-1.521.756-7.3,3.782-8.748,6.977-1.634,3.624.271,6.22,1.521,6.575a9.324,9.324,0,0,0,10.046-4.072,10.112,10.112,0,0,0,.9-9.293c-.009-.028-.028-.047-.037-.075.392-.233.794-.467,1.2-.7.774-.458,1.531-.878,2.194-1.242a14.506,14.506,0,0,0-.785,3.979,8.267,8.267,0,0,0,1.784,5.762,1.96,1.96,0,0,0,1.437.467c1.289,0,1.868-1.065,2.511-2.335.794-1.55,1.494-3.353,1.494-3.353s-.878,4.875,1.522,4.875c.877,0,1.755-1.13,2.148-1.709v.009s.019-.037.065-.112c.093-.14.14-.224.14-.224v-.028c.355-.607,1.13-2,2.3-4.3,1.513-2.97,2.96-6.678,2.96-6.678a18.8,18.8,0,0,0,.579,2.41,22.559,22.559,0,0,0,1.251,2.8c-.355.486-.57.766-.57.766a.029.029,0,0,0,.009.019c-.28.374-.6.775-.925,1.167a32.965,32.965,0,0,0-2.8,3.512.954.954,0,0,0,.262,1.279,2.27,2.27,0,0,0,1.465.233,6.476,6.476,0,0,0,2.195-.5,7.677,7.677,0,0,0,1.886-.99,4.216,4.216,0,0,0,1.812-3.717,7.735,7.735,0,0,0-.682-2.634c.1-.149.215-.308.318-.467a49.648,49.648,0,0,0,3.277-5.662,18.794,18.794,0,0,0,.579,2.41,16.474,16.474,0,0,0,1.064,2.4A10.266,10.266,0,0,0,40.5,33.775c-.691,1.989-.149,2.886.869,3.091a3.134,3.134,0,0,0,1.6-.327A7.421,7.421,0,0,0,44.978,35.5,4.513,4.513,0,0,0,47.2,31.8a6.948,6.948,0,0,0-.5-2.185,11.4,11.4,0,0,1,5.8-.672c5.2.607,6.218,3.857,6.022,5.211a3.453,3.453,0,0,1-1.653,2.335c-.364.224-.476.308-.448.476.047.243.215.233.523.177a4.057,4.057,0,0,0,2.829-3.614c.149-3.175-2.9-6.668-8.312-6.64ZM11.374,40.408C9.657,42.286,7.247,43,6.212,42.4c-1.111-.646-.672-3.409,1.447-5.409a27.672,27.672,0,0,1,4.052-3.026c.252-.149.616-.374,1.065-.644.075-.047.112-.065.112-.065.084-.056.177-.1.271-.159a7.454,7.454,0,0,1-1.784,7.313Zm12.548-8.536c-.6,1.466-1.858,5.2-2.623,5.006-.654-.168-1.055-3.017-.131-5.818a12.881,12.881,0,0,1,2.045-3.745c.942-1.055,1.979-1.392,2.222-.971C25.763,26.894,24.3,30.957,23.923,31.872Zm10.367,4.95c-.252.131-.486.215-.6.149-.084-.047.1-.224.1-.224s1.3-1.392,1.812-2.027c.3-.374.644-.813,1.017-1.3,0,.047.009.093.009.149-.012,1.672-1.618,2.8-2.346,3.25ZM42.282,35c-.187-.131-.159-.57.467-1.933a7.259,7.259,0,0,1,1.774-2.288,3.379,3.379,0,0,1,.177,1.009A3.293,3.293,0,0,1,42.283,35Z" transform="translate(0 -1.125)"/>
</svg>
