<svg xmlns="http://www.w3.org/2000/svg" width="104.166" height="96.075" viewBox="0 0 104.166 96.075">
  <path id="Icon_awesome-cloud-sun" data-name="Icon awesome-cloud-sun" d="M75.228,42.6a7.052,7.052,0,0,0,.1-.732A8.345,8.345,0,0,0,62.5,34.8a14.631,14.631,0,0,0-27.975,6.016c0,.392.092.759.118,1.138a12.526,12.526,0,0,0,.929,25.019H71.148A12.526,12.526,0,0,0,75.228,42.6Zm-56.29-2.956A14.645,14.645,0,1,1,42.571,23.215a18.767,18.767,0,0,1,4.015-.981l3.9-11.627A1.984,1.984,0,0,0,47.972,8.1L36.489,11.928,31.062,1.1a1.979,1.979,0,0,0-3.544,0L22.1,11.928,10.607,8.1A1.992,1.992,0,0,0,8.1,10.607L11.928,22.09,1.1,27.517a1.979,1.979,0,0,0,0,3.544l10.829,5.415L8.1,47.959a1.984,1.984,0,0,0,2.511,2.511l9.953-3.309a16.9,16.9,0,0,1,3.087-4.381,14.422,14.422,0,0,1-4.708-3.139ZM18.31,29.283a10.987,10.987,0,0,0,8.88,10.764,16.779,16.779,0,0,1,3.3-1.53A18.851,18.851,0,0,1,39.3,24.784a10.979,10.979,0,0,0-20.991,4.5Z" transform="translate(28.305) rotate(25)" fill="#ffda4e"/>
</svg>
