<svg xmlns="http://www.w3.org/2000/svg" xmlns:xlink="http://www.w3.org/1999/xlink" width="149.413" height="956.15" viewBox="0 0 149.413 956.15">
  <defs>
    <linearGradient id="linear-gradient" x1="0.5" y1="1.328" x2="0.5" y2="-1.28" gradientUnits="objectBoundingBox">
      <stop offset="0" stop-color="#fd4021"/>
      <stop offset="1" stop-color="#ffb698"/>
    </linearGradient>
  </defs>
  <g id="Group_85" data-name="Group 85" transform="translate(-683 -3530.85)">
    <g id="Group_74" data-name="Group 74" transform="translate(4876.236 2922.81) rotate(90)">
      <path id="Path_259" data-name="Path 259" d="M-117.96,34.891q0-19.953,8.633-35.589A61.7,61.7,0,0,1-85.249-25.063q15.444-8.729,35.013-8.729,23.982,0,41.056,12.662T13.65,13.4H-22.418A29.129,29.129,0,0,0-33.833.549,32.1,32.1,0,0,0-50.62-3.863q-15.156,0-24.557,10.552t-9.4,28.2q0,17.65,9.4,28.2T-50.62,73.645a32.1,32.1,0,0,0,16.787-4.413A29.129,29.129,0,0,0-22.418,56.378H13.65Q7.895,78.249-9.18,90.816t-41.056,12.566q-19.569,0-35.013-8.729a61.874,61.874,0,0,1-24.077-24.269Q-117.96,54.843-117.96,34.891ZM97.49,103.766A70.291,70.291,0,0,1,62.669,94.94,65.971,65.971,0,0,1,37.536,70.287a68.9,68.9,0,0,1-9.3-35.589q0-19.761,9.3-35.493A66.18,66.18,0,0,1,62.669-25.351,70.291,70.291,0,0,1,97.49-34.176a70.291,70.291,0,0,1,34.821,8.825A64.8,64.8,0,0,1,157.252-.794q9.113,15.732,9.113,35.493a69.457,69.457,0,0,1-9.209,35.589A65.476,65.476,0,0,1,132.215,94.94,69.757,69.757,0,0,1,97.49,103.766Zm0-29.929q16.116,0,25.8-10.744T132.982,34.7q0-17.842-9.689-28.49T97.49-4.439q-16.307,0-26,10.552T61.805,34.7q0,17.842,9.689,28.49T97.49,73.837Zm207.584,28.586H272.267L217.4,19.351v83.072H184.591V-32.257H217.4L272.267,51.2V-32.257h32.807ZM425.749-32.257V-5.974H390.064v108.4H357.258V-5.974H321.573V-32.257ZM526.087,78.633H475.822l-8.058,23.79H433.423l48.73-134.68H520.14l48.73,134.68H534.145Zm-8.441-25.324L500.955,4l-16.5,49.306Zm60.433-18.418q0-19.953,8.633-35.589A61.7,61.7,0,0,1,610.79-25.063q15.444-8.729,35.013-8.729,23.982,0,41.056,12.662T709.69,13.4H673.622A29.129,29.129,0,0,0,662.206.549a32.1,32.1,0,0,0-16.787-4.413q-15.156,0-24.557,10.552t-9.4,28.2q0,17.65,9.4,28.2t24.557,10.552a32.1,32.1,0,0,0,16.787-4.413,29.129,29.129,0,0,0,11.415-12.854H709.69q-5.756,21.871-22.83,34.437T645.8,103.382q-19.569,0-35.013-8.729a61.874,61.874,0,0,1-24.077-24.269Q578.079,54.843,578.079,34.891Zm248.64-67.148V-5.974H791.035v108.4H758.228V-5.974H722.544V-32.257Z" transform="translate(737.471 4089.471)" fill="#a02041"/>
      <path id="Path_258" data-name="Path 258" d="M-117.96,34.891q0-19.953,8.633-35.589A61.7,61.7,0,0,1-85.249-25.063q15.444-8.729,35.013-8.729,23.982,0,41.056,12.662T13.65,13.4H-22.418A29.129,29.129,0,0,0-33.833.549,32.1,32.1,0,0,0-50.62-3.863q-15.156,0-24.557,10.552t-9.4,28.2q0,17.65,9.4,28.2T-50.62,73.645a32.1,32.1,0,0,0,16.787-4.413A29.129,29.129,0,0,0-22.418,56.378H13.65Q7.895,78.249-9.18,90.816t-41.056,12.566q-19.569,0-35.013-8.729a61.874,61.874,0,0,1-24.077-24.269Q-117.96,54.843-117.96,34.891ZM97.49,103.766A70.291,70.291,0,0,1,62.669,94.94,65.971,65.971,0,0,1,37.536,70.287a68.9,68.9,0,0,1-9.3-35.589q0-19.761,9.3-35.493A66.18,66.18,0,0,1,62.669-25.351,70.291,70.291,0,0,1,97.49-34.176a70.291,70.291,0,0,1,34.821,8.825A64.8,64.8,0,0,1,157.252-.794q9.113,15.732,9.113,35.493a69.457,69.457,0,0,1-9.209,35.589A65.476,65.476,0,0,1,132.215,94.94,69.757,69.757,0,0,1,97.49,103.766Zm0-29.929q16.116,0,25.8-10.744T132.982,34.7q0-17.842-9.689-28.49T97.49-4.439q-16.307,0-26,10.552T61.805,34.7q0,17.842,9.689,28.49T97.49,73.837Zm207.584,28.586H272.267L217.4,19.351v83.072H184.591V-32.257H217.4L272.267,51.2V-32.257h32.807ZM425.749-32.257V-5.974H390.064v108.4H357.258V-5.974H321.573V-32.257ZM526.087,78.633H475.822l-8.058,23.79H433.423l48.73-134.68H520.14l48.73,134.68H534.145Zm-8.441-25.324L500.955,4l-16.5,49.306Zm60.433-18.418q0-19.953,8.633-35.589A61.7,61.7,0,0,1,610.79-25.063q15.444-8.729,35.013-8.729,23.982,0,41.056,12.662T709.69,13.4H673.622A29.129,29.129,0,0,0,662.206.549a32.1,32.1,0,0,0-16.787-4.413q-15.156,0-24.557,10.552t-9.4,28.2q0,17.65,9.4,28.2t24.557,10.552a32.1,32.1,0,0,0,16.787-4.413,29.129,29.129,0,0,0,11.415-12.854H709.69q-5.756,21.871-22.83,34.437T645.8,103.382q-19.569,0-35.013-8.729a61.874,61.874,0,0,1-24.077-24.269Q578.079,54.843,578.079,34.891Zm248.64-67.148V-5.974H791.035v108.4H758.228V-5.974H722.544V-32.257Z" transform="translate(727 4079)" stroke="#fff" stroke-width="2" fill="url(#linear-gradient)"/>
    </g>
  </g>
</svg>
