<svg xmlns="http://www.w3.org/2000/svg" width="43.837" height="42.742" viewBox="0 0 43.837 42.742">
  <path id="Icon_awesome-github" data-name="Icon awesome-github" d="M14.662,34.978c0,.177-.2.318-.46.318-.292.027-.495-.115-.495-.318,0-.177.2-.318.46-.318C14.433,34.633,14.662,34.775,14.662,34.978Zm-2.749-.4c-.062.177.115.38.38.433a.415.415,0,0,0,.548-.177c.053-.177-.115-.38-.38-.46A.454.454,0,0,0,11.914,34.58Zm3.906-.15c-.256.062-.433.23-.407.433.027.177.256.292.521.23s.433-.23.407-.407S16.076,34.4,15.82,34.43ZM21.636.562A21.193,21.193,0,0,0,0,22.127,22.158,22.158,0,0,0,14.981,43.268c1.131.2,1.529-.495,1.529-1.069,0-.548-.027-3.571-.027-5.427,0,0-6.187,1.326-7.486-2.634,0,0-1.008-2.572-2.457-3.235,0,0-2.024-1.388.141-1.361a4.665,4.665,0,0,1,3.411,2.28c1.936,3.411,5.179,2.43,6.443,1.847a4.912,4.912,0,0,1,1.414-2.978c-4.94-.548-9.925-1.264-9.925-9.766a6.7,6.7,0,0,1,2.086-5.206,8.35,8.35,0,0,1,.23-6c1.847-.574,6.1,2.386,6.1,2.386a20.879,20.879,0,0,1,11.1,0s4.251-2.97,6.1-2.386a8.346,8.346,0,0,1,.23,6c1.414,1.564,2.28,2.784,2.28,5.206,0,8.529-5.206,9.209-10.146,9.766a5.227,5.227,0,0,1,1.5,4.1c0,2.978-.027,6.664-.027,7.389,0,.574.407,1.273,1.529,1.069a21.954,21.954,0,0,0,14.83-21.123C43.837,9.869,33.894.562,21.636.562ZM8.591,31.045c-.115.088-.088.292.062.46.141.141.345.2.46.088.115-.088.088-.292-.062-.46C8.909,30.992,8.706,30.93,8.591,31.045Zm-.955-.716c-.062.115.027.256.2.345a.263.263,0,0,0,.38-.062c.062-.115-.027-.256-.2-.345C7.839,30.214,7.7,30.241,7.636,30.329ZM10.5,33.475c-.141.115-.088.38.115.548.2.2.46.23.574.088.115-.115.062-.38-.115-.548C10.88,33.361,10.615,33.334,10.5,33.475Zm-1.008-1.3c-.141.088-.141.318,0,.521s.38.292.495.2a.4.4,0,0,0,0-.548C9.863,32.15,9.634,32.061,9.492,32.176Z" transform="translate(0 -0.563)" fill="#060930"/>
</svg>
