<svg xmlns="http://www.w3.org/2000/svg" xmlns:xlink="http://www.w3.org/1999/xlink" width="593.956" height="70.224" viewBox="0 0 593.956 70.224">
  <defs>
    <linearGradient id="linear-gradient" x1="0.5" y1="2.038" x2="0.5" y2="-0.999" gradientUnits="objectBoundingBox">
      <stop offset="0" stop-color="red"/>
      <stop offset="1" stop-color="#ffb662"/>
    </linearGradient>
  </defs>
  <g id="Group_76" data-name="Group 76" transform="translate(-243 -290)">
    <g id="Group_75" data-name="Group 75">
      <path id="Path_28" data-name="Path 28" d="M-67.591-27.618v60.53H-82.336v-36.3l-13.537,36.3h-11.9L-121.4-3.475V32.912H-136.14v-60.53h17.417l16.986,41.905,16.814-41.905Zm25.35,0v60.53H-56.986v-60.53ZM3.544,32.912-16.8,6.182v26.73H-31.549v-60.53H-16.8V-1.061L3.372-27.618H20.7L-2.75,2.044,21.565,32.912ZM43.294-15.8V-3.561H63.039V7.821H43.294V21.1H65.626V32.912H28.549v-60.53H65.626V-15.8ZM90.976,2.561a32.535,32.535,0,0,1,3.88-15.995,27.731,27.731,0,0,1,10.821-10.951,31.417,31.417,0,0,1,15.736-3.923,30.109,30.109,0,0,1,18.452,5.691A27.33,27.33,0,0,1,150.126-7.1h-16.21a13.092,13.092,0,0,0-5.13-5.777,14.425,14.425,0,0,0-7.545-1.983A14.082,14.082,0,0,0,110.2-10.114q-4.225,4.742-4.225,12.675T110.2,15.236a14.082,14.082,0,0,0,11.037,4.742A14.425,14.425,0,0,0,128.786,18a13.092,13.092,0,0,0,5.13-5.777h16.21A27.13,27.13,0,0,1,139.865,27.7q-7.674,5.648-18.452,5.648a31.417,31.417,0,0,1-15.736-3.923A27.808,27.808,0,0,1,94.856,18.513,32.291,32.291,0,0,1,90.976,2.561Zm96.83,30.955a31.591,31.591,0,0,1-15.65-3.966,29.65,29.65,0,0,1-11.3-11.08,30.966,30.966,0,0,1-4.182-15.995,30.737,30.737,0,0,1,4.182-15.952,29.744,29.744,0,0,1,11.3-11.037,32.857,32.857,0,0,1,31.3,0,29.121,29.121,0,0,1,11.209,11.037,31.238,31.238,0,0,1,4.1,15.952,31.216,31.216,0,0,1-4.139,15.995,29.427,29.427,0,0,1-11.209,11.08A31.351,31.351,0,0,1,187.806,33.516Zm0-13.451a14.854,14.854,0,0,0,11.6-4.829q4.354-4.829,4.354-12.761,0-8.019-4.354-12.8a14.919,14.919,0,0,0-11.6-4.785q-7.329,0-11.683,4.742T171.769,2.475q0,8.019,4.354,12.8T187.806,20.065ZM270.5-27.618V-15.8H254.458V32.912H239.714V-15.8H223.676V-27.618Zm50.959,0V-15.8H305.417V32.912H290.673V-15.8H274.635V-27.618ZM357.5,33.516a31.591,31.591,0,0,1-15.65-3.966,29.65,29.65,0,0,1-11.3-11.08A30.966,30.966,0,0,1,326.37,2.475a30.737,30.737,0,0,1,4.182-15.952,29.743,29.743,0,0,1,11.3-11.037,32.857,32.857,0,0,1,31.3,0,29.121,29.121,0,0,1,11.209,11.037,31.238,31.238,0,0,1,4.1,15.952,31.216,31.216,0,0,1-4.139,15.995A29.427,29.427,0,0,1,373.1,29.549,31.351,31.351,0,0,1,357.5,33.516Zm0-13.451a14.854,14.854,0,0,0,11.6-4.829q4.354-4.829,4.354-12.761,0-8.019-4.354-12.8a14.919,14.919,0,0,0-11.6-4.785q-7.329,0-11.683,4.742T341.459,2.475q0,8.019,4.354,12.8T357.5,20.065Zm93.3,12.847H436.048L411.387-4.423V32.912H396.643v-60.53h14.744L436.048,9.89V-27.618h14.744Z" transform="translate(386.164 326.709)" fill="#a02041"/>
      <path id="Path_27" data-name="Path 27" d="M-67.591-27.618v60.53H-82.336v-36.3l-13.537,36.3h-11.9L-121.4-3.475V32.912H-136.14v-60.53h17.417l16.986,41.905,16.814-41.905Zm25.35,0v60.53H-56.986v-60.53ZM3.544,32.912-16.8,6.182v26.73H-31.549v-60.53H-16.8V-1.061L3.372-27.618H20.7L-2.75,2.044,21.565,32.912ZM43.294-15.8V-3.561H63.039V7.821H43.294V21.1H65.626V32.912H28.549v-60.53H65.626V-15.8ZM90.976,2.561a32.535,32.535,0,0,1,3.88-15.995,27.731,27.731,0,0,1,10.821-10.951,31.417,31.417,0,0,1,15.736-3.923,30.109,30.109,0,0,1,18.452,5.691A27.33,27.33,0,0,1,150.126-7.1h-16.21a13.092,13.092,0,0,0-5.13-5.777,14.425,14.425,0,0,0-7.545-1.983A14.082,14.082,0,0,0,110.2-10.114q-4.225,4.742-4.225,12.675T110.2,15.236a14.082,14.082,0,0,0,11.037,4.742A14.425,14.425,0,0,0,128.786,18a13.092,13.092,0,0,0,5.13-5.777h16.21A27.13,27.13,0,0,1,139.865,27.7q-7.674,5.648-18.452,5.648a31.417,31.417,0,0,1-15.736-3.923A27.808,27.808,0,0,1,94.856,18.513,32.291,32.291,0,0,1,90.976,2.561Zm96.83,30.955a31.591,31.591,0,0,1-15.65-3.966,29.65,29.65,0,0,1-11.3-11.08,30.966,30.966,0,0,1-4.182-15.995,30.737,30.737,0,0,1,4.182-15.952,29.744,29.744,0,0,1,11.3-11.037,32.857,32.857,0,0,1,31.3,0,29.121,29.121,0,0,1,11.209,11.037,31.238,31.238,0,0,1,4.1,15.952,31.216,31.216,0,0,1-4.139,15.995,29.427,29.427,0,0,1-11.209,11.08A31.351,31.351,0,0,1,187.806,33.516Zm0-13.451a14.854,14.854,0,0,0,11.6-4.829q4.354-4.829,4.354-12.761,0-8.019-4.354-12.8a14.919,14.919,0,0,0-11.6-4.785q-7.329,0-11.683,4.742T171.769,2.475q0,8.019,4.354,12.8T187.806,20.065ZM270.5-27.618V-15.8H254.458V32.912H239.714V-15.8H223.676V-27.618Zm50.959,0V-15.8H305.417V32.912H290.673V-15.8H274.635V-27.618ZM357.5,33.516a31.591,31.591,0,0,1-15.65-3.966,29.65,29.65,0,0,1-11.3-11.08A30.966,30.966,0,0,1,326.37,2.475a30.737,30.737,0,0,1,4.182-15.952,29.743,29.743,0,0,1,11.3-11.037,32.857,32.857,0,0,1,31.3,0,29.121,29.121,0,0,1,11.209,11.037,31.238,31.238,0,0,1,4.1,15.952,31.216,31.216,0,0,1-4.139,15.995A29.427,29.427,0,0,1,373.1,29.549,31.351,31.351,0,0,1,357.5,33.516Zm0-13.451a14.854,14.854,0,0,0,11.6-4.829q4.354-4.829,4.354-12.761,0-8.019-4.354-12.8a14.919,14.919,0,0,0-11.6-4.785q-7.329,0-11.683,4.742T341.459,2.475q0,8.019,4.354,12.8T357.5,20.065Zm93.3,12.847H436.048L411.387-4.423V32.912H396.643v-60.53h14.744L436.048,9.89V-27.618h14.744Z" transform="translate(380.14 319.48)" stroke="#fff" stroke-width="2" fill="url(#linear-gradient)"/>
    </g>
  </g>
</svg>
