<svg xmlns="http://www.w3.org/2000/svg" width="224" height="231" viewBox="0 0 224 209">
  <g id="Group_79" data-name="Group 79" transform="translate(-553 -1272)">
    <circle id="Ellipse_23" data-name="Ellipse 23" cx="99.5" cy="99.5" r="99.5" transform="translate(578 1282)" fill="#dbe7d6"/>
    <path id="Icon_awesome-star-of-life" data-name="Icon awesome-star-of-life" d="M126.79,89.838,90.275,68.769,126.79,47.7a4.3,4.3,0,0,0,1.574-5.872l-8.6-14.89a4.3,4.3,0,0,0-5.875-1.574L77.373,46.433V4.3a4.3,4.3,0,0,0-4.3-4.3h-17.2a4.3,4.3,0,0,0-4.3,4.3V46.435L15.054,25.367a4.3,4.3,0,0,0-5.875,1.574L.577,41.828A4.3,4.3,0,0,0,2.151,47.7L38.666,68.769,2.151,89.838A4.3,4.3,0,0,0,.577,95.71l8.6,14.89a4.3,4.3,0,0,0,5.875,1.574L51.568,91.106V133.24a4.3,4.3,0,0,0,4.3,4.3h17.2a4.3,4.3,0,0,0,4.3-4.3V91.1l36.515,21.069a4.3,4.3,0,0,0,5.875-1.574l8.6-14.89A4.3,4.3,0,0,0,126.79,89.838Z" transform="translate(613.404 1313.231)" fill="rgba(255,255,255,0.59)"/>
    <circle id="Ellipse_24" data-name="Ellipse 24" cx="27.5" cy="27.5" r="27.5" transform="translate(553 1327)" fill="#52b64e"/>
    <circle id="Ellipse_25" data-name="Ellipse 25" cx="27.5" cy="27.5" r="27.5" transform="translate(587 1272)" fill="#52b64e"/>
    <path id="Icon_awesome-react" data-name="Icon awesome-react" d="M29.4,12.459q-.57-.19-1.139-.359c.063-.26.12-.52.176-.78.865-4.191.3-7.559-1.624-8.67-1.849-1.062-4.866.042-7.917,2.7-.3.26-.6.534-.879.809-.19-.183-.387-.366-.584-.541-3.2-2.841-6.405-4.036-8.325-2.918C7.27,3.769,6.722,6.94,7.5,10.905c.077.394.162.78.26,1.174-.45.127-.893.267-1.308.415C2.693,13.8,0,15.848,0,17.972c0,2.194,2.869,4.395,6.771,5.73.316.105.633.211.956.3-.105.422-.2.837-.281,1.266-.738,3.9-.162,7,1.68,8.058,1.9,1.1,5.091-.028,8.2-2.749.246-.218.492-.443.738-.682.309.3.633.591.956.872C22.029,33.356,25,34.4,26.838,33.342c1.9-1.1,2.517-4.423,1.716-8.473q-.095-.464-.211-.949c.225-.063.443-.134.661-.2,4.057-1.343,7-3.516,7-5.745,0-2.13-2.77-4.2-6.6-5.512ZM19.891,6.49c2.616-2.278,5.055-3.171,6.166-2.531,1.188.682,1.645,3.438.9,7.059-.049.239-.1.471-.162.7a35.995,35.995,0,0,0-4.732-.745,35.525,35.525,0,0,0-3-3.734c.274-.26.541-.506.823-.752ZM11.756,21.621c.359.612.724,1.223,1.111,1.821A31.839,31.839,0,0,1,9.6,22.915a32.846,32.846,0,0,1,1.146-3.129c.323.619.654,1.23,1.005,1.835Zm-2.13-8.459c1.012-.225,2.088-.408,3.206-.548-.373.584-.738,1.181-1.083,1.786s-.682,1.209-1,1.828c-.443-1.048-.816-2.074-1.125-3.066Zm1.927,4.845c.464-.97.97-1.92,1.5-2.855s1.111-1.842,1.716-2.735c1.055-.077,2.13-.12,3.227-.12s2.18.042,3.227.12q.9,1.329,1.709,2.721t1.526,2.841q-.707,1.455-1.519,2.869c-.534.935-1.1,1.842-1.7,2.742-1.048.077-2.138.112-3.241.112s-2.173-.035-3.206-.1q-.918-1.339-1.73-2.742c-.541-.935-1.041-1.884-1.512-2.855Zm12.7,3.6c.359-.619.7-1.245,1.027-1.877a32.64,32.64,0,0,1,1.188,3.115,30.884,30.884,0,0,1-3.3.563C23.541,22.816,23.9,22.212,24.251,21.607Zm1.013-5.379c-.33-.619-.668-1.238-1.02-1.842s-.7-1.188-1.076-1.772a32.357,32.357,0,0,1,3.227.563,31.117,31.117,0,0,1-1.132,3.052Zm-7.249-7.91A30.876,30.876,0,0,1,20.1,10.835c-1.392-.063-2.791-.063-4.184,0C16.6,9.928,17.311,9.084,18.014,8.318ZM9.858,4.008c1.181-.689,3.8.3,6.567,2.742.176.155.352.323.534.492a35.723,35.723,0,0,0-3.016,3.734,37.064,37.064,0,0,0-4.725.731c-.091-.359-.169-.724-.246-1.09-.661-3.4-.225-5.97.886-6.609ZM8.135,22.542c-.3-.084-.584-.176-.872-.274a14.341,14.341,0,0,1-4.43-2.194,3.155,3.155,0,0,1-1.322-2.1c0-1.287,2.222-2.932,5.428-4.05.4-.141.809-.267,1.216-.387a37.388,37.388,0,0,0,1.723,4.472,38.434,38.434,0,0,0-1.744,4.535Zm8.2,6.891a12.869,12.869,0,0,1-3.966,2.482,3.112,3.112,0,0,1-2.482.091c-1.118-.647-1.582-3.129-.949-6.469.077-.394.162-.788.26-1.174a35.175,35.175,0,0,0,4.774.689,37.106,37.106,0,0,0,3.037,3.755C16.784,29.025,16.559,29.236,16.334,29.433Zm1.723-1.709c-.717-.773-1.434-1.631-2.13-2.552.675.028,1.371.042,2.074.042.724,0,1.434-.014,2.138-.049a30.322,30.322,0,0,1-2.081,2.559Zm9.19,2.109a3.125,3.125,0,0,1-1.16,2.2c-1.118.647-3.5-.2-6.075-2.4-.3-.253-.591-.527-.893-.809a34.783,34.783,0,0,0,2.967-3.769,34.662,34.662,0,0,0,4.8-.738c.07.288.134.577.19.858a12.817,12.817,0,0,1,.176,4.662Zm1.28-7.559c-.2.063-.394.127-.6.183a35.719,35.719,0,0,0-1.793-4.486,35.54,35.54,0,0,0,1.723-4.423c.366.105.717.218,1.055.33,3.277,1.125,5.576,2.8,5.576,4.078,0,1.378-2.454,3.157-5.962,4.317ZM18,21.22A3.22,3.22,0,1,0,14.78,18,3.22,3.22,0,0,0,18,21.22Z" transform="translate(561.5 1336.498)" fill="#fff"/>
    <path id="Icon_simple-redux" data-name="Icon simple-redux" d="M22.161,22.093a2.217,2.217,0,0,0,2-2.337,2.3,2.3,0,0,0-2.276-2.2H21.8a2.278,2.278,0,0,0-2.2,2.357,2.432,2.432,0,0,0,.658,1.536A14.7,14.7,0,0,1,13.6,27.843,10.931,10.931,0,0,1,7.01,29.08a5.743,5.743,0,0,1-4.152-2.4,5.954,5.954,0,0,1-.34-6.307,9.414,9.414,0,0,1,2.8-3.255,13.27,13.27,0,0,1-.56-2.055C-1.155,19.3-.554,25.089,1.242,27.824A8.5,8.5,0,0,0,8.309,31.1a10.369,10.369,0,0,0,2.456-.258,15.619,15.619,0,0,0,11.378-8.7l.019-.041ZM29.287,17.1a16.476,16.476,0,0,0-12.836-5.629h-.68a2.148,2.148,0,0,0-1.995-1.2h-.06a2.234,2.234,0,0,0-2.194,2.336,2.3,2.3,0,0,0,2.276,2.2h.1a2.253,2.253,0,0,0,2-1.4h.739a15.46,15.46,0,0,1,8.644,2.654,10.943,10.943,0,0,1,4.312,5.191,5.512,5.512,0,0,1-.06,4.793A5.934,5.934,0,0,1,23.939,29.4a10.421,10.421,0,0,1-3.953-.858c-.478.4-1.278,1.057-1.857,1.456a12.818,12.818,0,0,0,5.25,1.256,8.913,8.913,0,0,0,7.885-4.312c1.2-2.4,1.1-6.427-1.957-9.881ZM8.647,22.81a2.3,2.3,0,0,0,2.276,2.2H11a2.276,2.276,0,0,0-.06-4.55h-.081a.859.859,0,0,0-.3.039,14.91,14.91,0,0,1-2.094-9.021,10.837,10.837,0,0,1,2.394-6.309,7.1,7.1,0,0,1,4.991-2.276c4.312-.081,6.109,5.291,6.247,7.427l2,.6c-.46-6.547-4.53-9.982-8.423-9.982-3.653,0-7.026,2.655-8.385,6.549A16.772,16.772,0,0,0,8.926,21.654a1.766,1.766,0,0,0-.278,1.156Z" transform="translate(598.513 1281.068)" fill="#fff"/>
  </g>
</svg>
