<svg xmlns="http://www.w3.org/2000/svg" width="224" height="231" viewBox="0 0 224 231">
  <g id="Group_81" data-name="Group 81" transform="translate(-158 -1241)">
    <circle id="Ellipse_23" data-name="Ellipse 23" cx="99.5" cy="99.5" r="99.5" transform="translate(183 1273)" fill="#dbe7d6"/>
    <path id="Icon_awesome-star-of-life" data-name="Icon awesome-star-of-life" d="M126.79,89.838,90.275,68.769,126.79,47.7a4.3,4.3,0,0,0,1.574-5.872l-8.6-14.89a4.3,4.3,0,0,0-5.875-1.574L77.373,46.433V4.3a4.3,4.3,0,0,0-4.3-4.3h-17.2a4.3,4.3,0,0,0-4.3,4.3V46.435L15.054,25.367a4.3,4.3,0,0,0-5.875,1.574L.577,41.828A4.3,4.3,0,0,0,2.151,47.7L38.666,68.769,2.151,89.838A4.3,4.3,0,0,0,.577,95.71l8.6,14.89a4.3,4.3,0,0,0,5.875,1.574L51.568,91.106V133.24a4.3,4.3,0,0,0,4.3,4.3h17.2a4.3,4.3,0,0,0,4.3-4.3V91.1l36.515,21.069a4.3,4.3,0,0,0,5.875-1.574l8.6-14.89A4.3,4.3,0,0,0,126.79,89.838Z" transform="translate(218.404 1304.231)" fill="rgba(255,255,255,0.59)"/>
    <circle id="Ellipse_24" data-name="Ellipse 24" cx="27.5" cy="27.5" r="27.5" transform="translate(158 1318)" fill="#52b64e"/>
    <circle id="Ellipse_25" data-name="Ellipse 25" cx="27.5" cy="27.5" r="27.5" transform="translate(192 1263)" fill="#52b64e"/>
    <circle id="Ellipse_26" data-name="Ellipse 26" cx="27.5" cy="27.5" r="27.5" transform="translate(255 1241)" fill="#52b64e"/>
    <path id="Icon_simple-javascript" data-name="Icon simple-javascript" d="M0,0H27.625V27.625H0ZM25.362,21.036c-.2-1.26-1.022-2.319-3.457-3.307-.847-.4-1.789-.673-2.068-1.312a1.359,1.359,0,0,1-.053-.811,1.319,1.319,0,0,1,1.744-.76,1.872,1.872,0,0,1,1.123,1.036c1.19-.778,1.19-.778,2.02-1.295a4.751,4.751,0,0,0-.674-.9,3.866,3.866,0,0,0-3.262-1.19l-.811.1a3.71,3.71,0,0,0-1.968,1.157A3.611,3.611,0,0,0,18.61,18.9c1.571,1.174,3.869,1.432,4.162,2.538.276,1.347-1,1.778-2.263,1.623a3.031,3.031,0,0,1-2.02-1.538l-2.106,1.21a4.655,4.655,0,0,0,.932,1.276c2,2.021,7.01,1.918,7.909-1.156a3.9,3.9,0,0,0,.085-1.9l.053.077ZM15.022,12.7H12.434c0,2.231-.01,4.448-.01,6.682a10.9,10.9,0,0,1-.159,3.12c-.38.793-1.358.692-1.8.552a2.221,2.221,0,0,1-.955-.984.987.987,0,0,0-.146-.226l-2.1,1.295a4.071,4.071,0,0,0,1.524,1.746,5.066,5.066,0,0,0,3.691.466,3.233,3.233,0,0,0,2.084-1.624c.587-1.07.463-2.383.457-3.851.014-2.364,0-4.73,0-7.112l0-.064Z" transform="translate(268.688 1253.188)" fill="#fff"/>
    <path id="Icon_awesome-html5" data-name="Icon awesome-html5" d="M0,2.25,2.454,30.08l11.011,3.67,11.081-3.67L27,2.25Zm21.67,8.993H8.747l.288,3.473H21.382l-.956,10.434-6.884,1.9v.021h-.077l-6.94-1.92L6.1,19.821H9.457L9.7,22.5l3.762,1.02,3.776-1.02.422-4.373H5.927l-.9-10.237H21.98l-.309,3.354Z" transform="translate(171.5 1328.5)" fill="#fff"/>
    <path id="Icon_awesome-css3-alt" data-name="Icon awesome-css3-alt" d="M0,2.25,2.454,30.08,13.5,33.75l11.046-3.67L27,2.25ZM22.015,7.875,21.677,11.2,13.57,14.667l-.021.007h7.84l-.9,10.308L13.584,27,6.638,24.947l-.45-5.2H9.626l.225,2.693,3.7.935L17.4,22.3l.26-4.331L5.963,17.93v-.007l-.014.007L5.7,14.674l7.882-3.284.457-.19H5.393L4.985,7.875Z" transform="translate(206 1272.5)" fill="#fff"/>
  </g>
</svg>
